<svg width="73" height="60" viewBox="0 0 73 60" fill="none" xmlns="http://www.w3.org/2000/svg">
<path d="M52.8695 7.16553C60.2968 6.45925 65.7616 7.77725 67.359 11.2555C70.3919 17.8607 58.3402 29.7471 40.4394 37.8049C22.5398 45.861 5.57034 47.0379 2.53782 40.4332C1.38075 37.9137 2.42449 34.6261 5.14329 31.075C0.867791 35.7831 -0.986859 40.2255 0.515004 43.4951C3.86375 50.7885 22.5999 49.4893 42.3629 40.5922C62.1265 31.6969 75.4331 18.5724 72.0843 11.2797C70.0969 6.95265 62.6925 5.64958 52.8697 7.16553H52.8695Z" fill="#FFAB11"/>
<path d="M43.2065 42.4299C35.6144 45.8477 27.9324 48.2593 21.0999 49.4302C25.552 53.5066 31.5035 56.001 38.0447 56.001C51.8342 56.001 63.0129 44.9324 63.0129 31.2793C63.0129 31.0502 63.0021 30.8237 62.9957 30.5955C57.6088 34.9209 50.7722 39.0242 43.2065 42.4299Z" fill="#3E3EF5"/>
<path d="M30.8596 16.1868L22.0031 20.1897L17.9593 28.9585L14.8319 22.1755C13.7032 24.994 13.0769 28.0633 13.0769 31.2791C13.0769 35.3593 14.0804 39.2041 15.8485 42.5959C22.6774 42.1161 31.1632 39.7629 39.5959 35.9677C49.2863 31.6055 56.6805 26.4118 61.1063 21.797C57.3493 12.8504 48.4405 6.55811 38.044 6.55811C31.9936 6.55811 26.4451 8.69052 22.1235 12.2369L30.8596 16.1868Z" fill="#3E3EF5"/>
<path d="M17.96 8.27267L20.4658 13.7051L25.9523 16.1859L20.4658 18.666L17.96 24.0993L15.4543 18.666L9.96761 16.1859L15.4543 13.7051L17.96 8.27267Z" fill="#FFAB11"/>
<path d="M62.9278 47.5496L64.6312 51.2443L68.3629 52.9308L64.6312 54.6183L62.9278 58.313L61.2247 54.6183L57.4928 52.9308L61.2247 51.2443L62.9278 47.5496Z" fill="#FFAB11"/>
<path d="M52.0577 1.32433C52.0577 2.05482 51.4588 2.64844 50.7201 2.64844C49.9816 2.64844 49.3825 2.05482 49.3825 1.32433C49.3825 0.592941 49.9816 0 50.7201 0C51.4588 0 52.0577 0.592941 52.0577 1.32433Z" fill="#3E3EF5"/>
<path d="M25.9409 57.0095C25.9409 58.3332 24.8574 59.406 23.5205 59.406C22.1838 59.406 21.1003 58.3332 21.1003 57.0095C21.1003 55.6852 22.1838 54.6133 23.5205 54.6133C24.8574 54.6133 25.9409 55.6852 25.9409 57.0095Z" fill="#3E3EF5"/>
<path d="M71.0383 38.7206C71.0383 39.835 70.1264 40.7388 69.0002 40.7388C67.8746 40.7388 66.9618 39.8348 66.9618 38.7206C66.9618 37.6067 67.8749 36.7027 69.0002 36.7027C70.1264 36.7027 71.0383 37.6067 71.0383 38.7206Z" fill="#3E3EF5"/>
<path d="M4.80627 22.8964C4.80627 23.5604 4.26178 24.0997 3.59093 24.0997C2.92031 24.0997 2.3756 23.5606 2.3756 22.8964C2.3756 22.2325 2.92009 21.6936 3.59093 21.6936C4.26155 21.6936 4.80627 22.2325 4.80627 22.8964Z" fill="#3E3EF5"/>
</svg>
