<svg width="242" height="60" viewBox="0 0 242 60" fill="none" xmlns="http://www.w3.org/2000/svg">
<path d="M105.665 27.9735L106.06 27.7262H106.706L107.1 28.1852L107.136 27.7262H107.638V40.118C106.515 40.9888 105.283 41.689 103.943 42.2186C102.604 42.7482 100.942 43.0364 98.957 43.0834V42.8715L99.6745 42.8009L99.1005 42.3774L99.4951 41.7772L98.7777 41.9536L98.5624 41.2829L98.2398 41.9184L97.558 41.6713L97.8808 42.3068L97.271 42.695L97.9885 42.8364L97.9528 43.0834C94.6763 43.0364 92.2906 42.3244 90.7961 40.9476C89.3013 39.5708 88.5539 37.2232 88.5539 33.9045V25.5375C88.5539 25.3492 88.5539 25.161 88.5539 24.9728C88.5539 24.7844 88.5539 24.5961 88.5539 24.4079L88.8409 24.3726L88.9126 24.6199L89.0202 24.4079L89.2352 24.4785L89.1637 24.2667L89.379 24.1609L89.1276 24.0901L89.1637 23.843L88.9844 23.9844L88.8048 23.808V24.055H88.6254C88.8646 21.3011 89.7852 19.3241 91.3876 18.1238C92.9898 16.9234 95.3334 16.3232 98.4189 16.3232C99.9496 16.3232 101.319 16.4764 102.526 16.7822C103.734 17.0881 104.864 17.5354 105.916 18.1238L105.737 18.9006L106.454 18.4063C106.646 18.5007 106.825 18.6124 106.992 18.7418C107.16 18.8712 107.339 18.9947 107.53 19.1124L107.566 19.1477C107.59 19.1477 107.602 19.1536 107.602 19.1653C107.602 19.1771 107.614 19.1832 107.638 19.1832V24.514L107.423 24.8669L106.813 24.5844L107.064 25.2198L106.885 25.2904L106.813 25.0079L106.598 25.4316L106.49 25.4667H100.105V24.3016C100.105 23.3836 99.9553 22.7365 99.6564 22.3601C99.3576 21.9834 98.9449 21.7952 98.4189 21.7952C97.8447 21.7952 97.4145 21.9776 97.1275 22.3422C96.8405 22.7071 96.6966 23.3603 96.6966 24.3016V35.034C96.6966 35.9521 96.8403 36.5991 97.1275 36.9755C97.4143 37.3522 97.8447 37.5404 98.4189 37.5404C98.9689 37.5404 99.3875 37.3522 99.6743 36.9755C99.9612 36.5991 100.105 35.9518 100.105 35.034V32.598H98.4189V27.726H105.737L105.665 27.9733L105.665 27.9735ZM88.5539 24.4077C88.5539 24.3606 88.5601 24.3134 88.5719 24.2665C88.5838 24.2195 88.5898 24.1722 88.5898 24.1251L88.6976 24.231L88.5541 24.4075L88.5539 24.4077ZM92.2129 22.6424L92.536 22.1834L93.0382 22.466L92.8586 21.9364L93.3967 21.7246L92.8586 21.5127L93.0382 20.9831L92.536 21.2656L92.2129 20.8066L92.1414 21.3362L91.5672 21.3009L91.9618 21.7246L91.5672 22.1128L92.1414 22.0778L92.2129 22.6424ZM106.634 33.9398L106.742 33.9751L106.706 34.0807L106.814 34.0101L106.85 34.116L106.885 34.0101H106.957L106.885 33.9396L106.957 33.869H106.849V33.7631L106.778 33.869L106.706 33.8337L106.741 33.9043L106.634 33.9396L106.634 33.9398ZM93.612 28.1499L94.2933 27.4086L95.1186 28.0441L94.9751 27.0557L95.9439 26.8437L95.083 26.3141L95.5491 25.4316L94.5805 25.7845L94.1501 24.8665L93.8631 25.8196L92.8586 25.5725L93.3967 26.42L92.5717 27.0202L93.612 27.126V28.1499ZM91.4239 37.9291L92.4282 37.5406L92.9304 38.494L93.2174 37.4701L94.2933 37.7171L93.6837 36.8346L94.5447 36.1638L93.4682 36.0932V34.9987L92.7508 35.7756L91.8901 35.1401L92.0333 36.1991L90.9574 36.4111L91.8901 36.9407L91.4237 37.9291H91.4239ZM101.217 41.0358L101.54 40.718L101.899 40.9653L101.827 40.5415L102.258 40.4357L101.863 40.2239L102.078 39.8355L101.648 39.9767L101.468 39.5884L101.325 40.0119L100.894 39.9061L101.145 40.259L100.786 40.5415L101.217 40.5768V41.0358H101.217ZM131.778 18.9355L132.387 18.7943V21.4068C132.005 21.4068 131.813 21.6893 131.813 22.2542C131.813 22.3954 131.825 22.566 131.849 22.7662C131.873 22.9662 131.921 23.1956 131.993 23.4544L135.078 35.8462C135.293 36.7405 135.484 37.323 135.652 37.5936C135.819 37.8644 136.022 37.9997 136.261 37.9997V42.5538H126.575V40.4004L127.257 40.471V41.6007L128.011 40.7886L128.908 41.4949L128.764 40.3651L129.876 40.1531L128.908 39.5884L129.41 38.5645L128.37 38.953L127.867 37.9646L127.509 39.0236L126.576 38.7765V37.9997C126.791 37.9058 126.977 37.7585 127.132 37.5585C127.287 37.3583 127.365 37.0816 127.365 36.7287C127.365 36.6581 127.359 36.5581 127.347 36.4287C127.335 36.2993 127.318 36.1288 127.293 35.9168L127.473 36.0582L127.366 35.4933L127.903 35.3519L127.401 35.1048L127.616 34.6108L127.114 34.8578L126.827 34.3635L126.72 34.8931L126.182 34.7874L126.504 35.2465L126.289 35.4229H122.917C122.821 36.1052 122.774 36.5407 122.774 36.7289C122.774 37.3882 123.037 37.8117 123.563 37.9999V42.5541H114.057V37.9999C114.32 37.9999 114.523 37.8646 114.666 37.5938C114.81 37.323 114.989 36.7525 115.204 35.8817L118.289 23.4899C118.361 23.2546 118.409 23.0309 118.433 22.8191C118.457 22.6074 118.469 22.4309 118.469 22.2895C118.469 21.9601 118.415 21.7307 118.307 21.6011C118.2 21.4717 118.074 21.407 117.931 21.407V16.8528H132.388V17.4532L131.599 17.5238L132.352 18.124L131.778 18.9359L131.778 18.9355ZM121.41 31.2214L122.701 31.292V32.5274L123.562 31.6099L124.567 32.351L124.352 31.1156L124.89 30.9744H126.504L125.105 21.5479H125.033L123.85 29.5621L123.24 28.4676L122.881 29.6679L121.661 29.3854L122.379 30.4093L121.41 31.2212V31.2214ZM132.71 41.0006L133.284 40.8947L133.428 41.4596L133.715 40.9655L134.252 41.2125L134.037 40.6829L134.575 40.4357L134.001 40.2592L134.109 39.6945L133.643 40.0122L133.284 39.5887L133.212 40.1533H132.638L133.069 40.5418L132.71 41.0008V41.0006ZM125.32 21.9013L126.253 21.7954L126.432 22.7135L126.899 21.9366L127.724 22.3603L127.437 21.5129L128.298 21.16L127.401 20.8421L127.652 19.9596L126.899 20.4539L126.325 19.7126L126.217 20.5245L125.93 20.3125L126.325 19.6418L125.536 19.889L125.249 19.1122L124.962 19.889L124.173 19.6418L124.567 20.348L123.885 20.7715L124.711 20.9127L124.639 21.7249L125.249 21.16L125.643 21.5482L125.321 21.9015L125.32 21.9013ZM118.432 32.7394L118.935 32.81L118.899 33.3043L119.258 32.9865L119.617 33.3043L119.58 32.81L120.083 32.7394L119.652 32.4569L119.903 32.0687L119.437 32.2098L119.258 31.7508L119.078 32.2098L118.612 32.0334L118.863 32.4569L118.432 32.7394ZM127.365 26.5611L127.76 26.3494L128.011 26.7023L128.082 26.2786L128.513 26.3494L128.226 25.996L128.549 25.7139H128.118L128.083 25.2902L127.796 25.6431L127.437 25.3961L127.545 25.8196L127.114 25.961L127.509 26.1374L127.365 26.5609L127.365 26.5611ZM125.787 21.0892L125.93 21.2303L125.822 21.3715L125.787 21.0894V21.0892ZM126.576 39.0236L127.006 39.659L126.576 40.0119V39.0236ZM118.72 20.2064L119.365 19.8182L119.796 20.4537L119.904 19.7123L120.657 19.7829L120.155 19.218L120.657 18.6884H119.904L119.796 17.9824L119.365 18.6179L118.72 18.2294L118.935 18.9355L118.217 19.218L118.935 19.5006L118.72 20.2066V20.2064ZM122.271 22.8189L122.881 22.7838L122.988 23.384L123.312 22.8899L123.813 23.1725L123.67 22.6076L124.208 22.3956L123.67 22.1836L123.85 21.619L123.347 21.9015L122.989 21.4072L122.881 22.0074L122.307 21.9368L122.701 22.3958L122.271 22.8193V22.8189ZM121.84 17.5587H121.876H121.912V17.4881H121.84V17.5587H121.84ZM144.688 30.1625L145.154 29.1386L146.266 29.527L145.728 28.5031L146.732 27.9027L145.584 27.6556L145.62 27.4437L145.979 27.6203L145.871 27.3025L146.015 27.2319L145.799 27.1613L145.692 26.8788L145.763 26.5962L146.624 26.2433L145.62 25.8196L145.943 24.8312L144.974 25.3608L144.365 24.4783L144.221 25.5372H143.396V23.7016C143.396 22.1246 143.049 21.3362 142.355 21.3362V16.8526H152.795V19.3945L152.436 19.5359L151.97 18.5475L151.611 19.5712L150.571 19.2886L151.145 20.1714L150.248 20.8068L151.36 20.948V22.007L152.077 21.2303L152.328 21.4423C152.089 21.5835 151.898 21.8658 151.755 22.2895C151.611 22.7132 151.539 23.3134 151.539 24.0901V34.7519L150.929 33.7986L150.714 34.8931L149.566 34.7874L150.319 35.6347L149.494 36.4115H150.643L150.786 37.506L151.468 36.6233L151.539 36.6586V37.294H152.041C152.879 37.294 153.446 37.1588 153.745 36.888C154.045 36.6172 154.194 35.9643 154.194 34.9286V31.7513H161.333V42.5543H149.53L149.961 41.7068L151.001 42.0953L150.535 41.1069L151.503 40.5773L150.391 40.2947L150.607 39.2358L149.71 39.9063L148.956 39.0944V40.1889L147.844 40.2594L148.705 40.9657L148.059 41.8482L149.171 41.6363L149.458 42.5543H142.355V38.0001C142.738 38.0001 143.007 37.8119 143.162 37.4352C143.318 37.0588 143.396 36.4586 143.396 35.6347V29.2799L144.293 29.0682L144.687 30.1627L144.688 30.1625ZM146.732 24.655L147.199 24.1959L147.701 24.6197L147.629 23.9842L148.239 23.9134L147.737 23.5252L148.06 22.9956L147.665 23.1012H147.629H147.593V23.1365L147.414 23.1718L147.199 22.6069L146.983 23.1718L146.338 22.9953L146.661 23.56L146.123 23.9129L146.768 24.0188L146.732 24.6543V24.655ZM142.463 21.0541L143.217 20.9482L143.396 21.6896L143.791 21.0541L144.472 21.3717L144.221 20.6657L144.903 20.348L144.185 20.1008L144.365 19.3597L143.719 19.7831L143.253 19.183L143.181 19.9596H142.392L142.966 20.4539L142.463 21.0541ZM145.082 39.6948L146.123 39.3414L146.589 40.3302L146.912 39.3414L147.988 39.624L147.414 38.7059L148.311 38.0705L147.235 37.9293V37.7881L147.414 37.6823L147.235 37.647V36.8703L146.732 37.3999L146.696 37.3646V37.4352L146.517 37.6117L145.692 36.9411L145.763 38.0001L144.723 38.1415L145.62 38.7417L145.082 39.695L145.082 39.6948ZM143.396 27.0204L143.611 26.9853L143.719 27.1265L143.396 27.409V27.0206V27.0204ZM150.284 27.3029L150.678 27.1618L150.858 27.5147L150.966 27.1263L151.36 27.1968L151.109 26.8792L151.432 26.632L151.037 26.5969L151.002 26.2085L150.75 26.5263L150.428 26.279L150.499 26.6675L150.105 26.7733L150.464 26.9498L150.284 27.3027L150.284 27.3029ZM143.396 28.0796L143.827 28.3974L143.396 28.9976V28.0796ZM143.396 26.4557V25.7497L143.898 26.2793L143.683 26.4912L143.396 26.4559L143.396 26.4557ZM184.611 18.9359L185.221 18.7948V21.4072C184.838 21.4072 184.646 21.6898 184.646 22.2547C184.646 22.3958 184.658 22.5664 184.682 22.7666C184.706 22.9666 184.754 23.196 184.826 23.4548L187.911 35.8466C188.126 36.7409 188.317 37.3235 188.485 37.594C188.652 37.8648 188.856 38.0001 189.095 38.0001V42.5543H179.409V40.4008L180.09 40.4714V41.6012L180.844 40.789L181.741 41.4953L181.597 40.3655L182.709 40.1536L181.741 39.5889L182.243 38.565L181.203 38.9534L180.701 37.965L180.342 39.024L179.409 38.777V38.0001C179.624 37.9062 179.81 37.7589 179.965 37.559C180.12 37.3587 180.198 37.0821 180.198 36.7292C180.198 36.6586 180.192 36.5586 180.18 36.4292C180.168 36.2998 180.151 36.1292 180.126 35.9172L180.306 36.0586L180.199 35.4937L180.736 35.3523L180.234 35.1053L180.449 34.6112L179.947 34.8583L179.66 34.364L179.553 34.8936L179.015 34.7879L179.338 35.2469L179.122 35.4234H175.75C175.654 36.1057 175.607 36.5412 175.607 36.7294C175.607 37.3886 175.87 37.8121 176.396 38.0003V42.5545H166.889V38.0003C167.152 38.0003 167.356 37.865 167.499 37.5943C167.643 37.3235 167.822 36.7529 168.037 35.8822L171.122 23.4903C171.194 23.2551 171.242 23.0313 171.266 22.8196C171.29 22.6078 171.302 22.4314 171.302 22.29C171.302 21.9606 171.248 21.7312 171.14 21.6016C171.032 21.4722 170.907 21.4075 170.764 21.4075V16.8533H185.221V17.4537L184.432 17.5243L185.185 18.1245L184.611 18.9364V18.9359ZM174.243 31.2219L175.535 31.2925V32.5279L176.396 31.6103L177.4 32.3514L177.185 31.116L177.723 30.9748H179.337L177.938 21.5484H177.867L176.683 29.5625L176.073 28.468L175.714 29.6684L174.495 29.3858L175.212 30.4097L174.243 31.2217L174.243 31.2219ZM185.543 41.001L186.117 40.8951L186.261 41.46L186.548 40.9659L187.086 41.213L186.87 40.6834L187.409 40.4361L186.835 40.2597L186.942 39.695L186.476 40.0126L186.117 39.5891L186.046 40.1538H185.471L185.902 40.5422L185.543 41.0012V41.001ZM178.154 21.9018L179.086 21.7959L179.266 22.7139L179.732 21.9371L180.557 22.3608L180.27 21.5133L181.131 21.1604L180.234 20.8426L180.485 19.9601L179.732 20.4544L179.158 19.713L179.05 20.5249L178.763 20.313L179.158 19.6422L178.369 19.8895L178.082 19.1126L177.795 19.8895L177.006 19.6422L177.4 20.3485L176.719 20.772L177.544 20.9132L177.472 21.7253L178.082 21.1604L178.476 21.5486L178.154 21.902L178.154 21.9018ZM171.266 32.7399L171.768 32.8104L171.732 33.3048L172.091 32.9869L172.45 33.3048L172.414 32.8104L172.916 32.7399L172.485 32.4573L172.737 32.0691L172.27 32.2103L172.091 31.7513L171.911 32.2103L171.445 32.0338L171.696 32.4573L171.266 32.7399ZM180.198 26.5616L180.593 26.3498L180.844 26.7028L180.916 26.279L181.346 26.3498L181.059 25.9965L181.382 25.7144H180.951L180.916 25.2907L180.629 25.6436L180.27 25.3965L180.378 25.82L179.947 25.9614L180.342 26.1379L180.199 26.5614L180.198 26.5616ZM178.62 21.0896L178.763 21.2308L178.656 21.3719L178.62 21.0898V21.0896ZM179.409 39.024L179.839 39.6595L179.409 40.0124V39.024ZM171.553 20.2069L172.198 19.8187L172.629 20.4541L172.737 19.7128L173.49 19.7834L172.988 19.2185L173.49 18.6889H172.737L172.629 17.9828L172.198 18.6183L171.553 18.2299L171.768 18.9359L171.051 19.2185L171.768 19.501L171.553 20.2071V20.2069ZM175.104 22.8193L175.714 22.7843L175.822 23.3845L176.145 22.8904L176.647 23.1729L176.503 22.608L177.042 22.3961L176.503 22.1841L176.683 21.6194L176.181 21.902L175.822 21.4077L175.714 22.0079L175.14 21.9373L175.534 22.3963L175.104 22.8198L175.104 22.8193ZM174.673 17.5591H174.71H174.746V17.4885H174.674V17.5591H174.673ZM206.561 22.8193L207.027 21.9368L207.924 22.2897L207.494 21.4072L208.355 20.9129L207.386 20.7012L207.53 19.7128L206.776 20.3483L206.238 19.7479V16.8531H215.709V21.4072C215.494 21.4072 215.26 21.4957 215.009 21.6721C214.758 21.8486 214.489 22.1486 214.202 22.5723L209.718 29.2096L210.363 30.1276H210.256L210.722 30.6572L210.22 31.1515H210.937L211.045 31.8221L211.296 31.4691L214.919 36.6588C215.326 37.2237 215.619 37.5884 215.798 37.7533C215.978 37.918 216.139 38.0003 216.283 38.0003V42.5545H206.238V39.0946C206.238 38.6238 206.196 38.2709 206.113 38.0356C206.029 37.8003 205.927 37.5296 205.808 37.2237L205.449 36.1645H205.377L205.055 37.2237C204.959 37.5296 204.857 37.8003 204.75 38.0356C204.642 38.2709 204.588 38.624 204.588 39.0946V42.5545H194.579V38.0003C194.699 38.0003 194.848 37.918 195.028 37.7533C195.207 37.5886 195.5 37.2237 195.907 36.6588L201.144 29.2096L196.624 22.5723C196.098 21.7957 195.608 21.4072 195.153 21.4072V16.8531H204.588V19.7834C204.588 20.2306 204.612 20.5659 204.66 20.7894C204.708 21.0129 204.815 21.3251 204.983 21.7251L205.377 22.6782H205.449L205.772 21.9721L206.274 21.8662L206.561 22.8193ZM207.35 27.0559L207.853 27.1265V27.6208L208.212 27.2674L208.606 27.6208L208.57 27.091L209.073 27.0204L208.642 26.7378L208.893 26.2788L208.391 26.4553L208.212 25.9612L207.996 26.4553L207.53 26.3141L207.781 26.7376L207.351 27.0555L207.35 27.0559ZM199.566 23.3842L199.674 23.2431L199.817 23.3137L199.745 23.1725L199.925 23.1017L199.781 23.0311L199.817 22.8899L199.674 22.9605L199.566 22.8191V22.9958H199.387L199.494 23.1015L199.387 23.2073H199.53L199.566 23.3838V23.3842ZM200.678 26.7736L201.001 26.491L201.324 26.8086V26.3498L201.754 26.3146L201.396 26.032L201.647 25.6791L201.216 25.785L201.073 25.3612L200.893 25.7497L200.463 25.6085L200.678 25.9967L200.283 26.244L200.714 26.3146L200.678 26.7736ZM200.463 34.0108L200.678 33.7988L200.893 34.0108L200.857 33.6932L201.144 33.6579L200.929 33.4814L201.072 33.2344L200.785 33.3403L200.678 33.0577L200.57 33.3403L200.283 33.2344L200.427 33.4814L200.175 33.6579L200.462 33.6932V34.0108H200.463ZM211.583 40.8246L212.337 40.4361L212.803 41.1424L212.983 40.3305L213.844 40.4361L213.269 39.7656L213.915 39.1652H213.054L212.947 38.3532L212.444 39.024L211.691 38.565L211.906 39.3769L211.081 39.6595L211.87 40.0124L211.583 40.8243L211.583 40.8246ZM207.781 28.4682L207.853 28.3624L207.996 28.3977L207.924 28.2565L208.068 28.1857L207.924 28.1506L207.96 28.0092L207.817 28.0798L207.745 27.9742L207.709 28.1153L207.566 28.1506L207.673 28.2212L207.601 28.3624L207.745 28.3273L207.78 28.4685L207.781 28.4682ZM209.072 34.7524L209.216 34.5053L209.467 34.6465L209.395 34.3995L209.646 34.2936L209.395 34.1877L209.467 33.9407L209.252 34.0818L209.072 33.8348L209.037 34.1174L208.75 34.0821L208.929 34.294L208.75 34.4705H209.037L209.072 34.7531V34.7524ZM199.602 38.9181L199.745 38.8828V38.9181L198.992 39.5536H199.997V40.542L200.678 39.8006L201.467 40.3655L201.288 39.5181L201.359 39.4124L202.256 39.1652L201.647 38.8475L201.682 38.8123L202.794 39.3066L202.328 38.1768L203.404 37.6472L202.256 37.3296L202.472 36.1643L201.503 36.8706L200.678 35.9525V37.1529H199.422L200.211 37.894L200.14 38.2469L200.068 38.3177L199.135 38.1058L199.673 38.8118L199.602 38.9177L199.602 38.9181ZM239.346 18.124L240.314 18.0534L240.458 19.0065L240.996 18.1946L241.534 18.5124V21.3369C241.343 21.3369 241.151 21.4192 240.966 21.5839C240.774 21.7486 240.559 22.0662 240.32 22.5372L236.183 30.5511L235.579 30.3394L235.932 31.0099L235.651 31.6103L235.148 31.9279L235.471 31.9632L235.256 32.4222V35.6347C235.256 36.4586 235.346 37.0588 235.519 37.4352C235.693 37.8119 235.998 38.0001 236.44 38.0001V42.5543H225.929V38.0001C226.383 38.0001 226.694 37.8119 226.862 37.4352C227.029 37.0588 227.113 36.4586 227.113 35.6347V32.4222L222.019 22.5372C221.78 22.0662 221.565 21.7486 221.373 21.5839C221.182 21.4192 220.99 21.3369 220.799 21.3369V16.8533H229.768V19.8189C229.768 20.8308 229.815 21.6663 229.911 22.3253C230.007 22.9843 230.234 23.7609 230.593 24.6552L231.059 25.8555L230.772 26.1381H231.884L232.028 27.1971L232.673 26.3146L233.642 26.9147L233.355 25.8203L234.432 25.5026L233.427 25.0436L233.786 23.9846L232.817 24.5142L232.208 23.5609L231.956 24.6554L231.741 24.6203C232.1 23.7258 232.327 22.9551 232.423 22.3078C232.519 21.6604 232.566 20.8308 232.566 19.8189V16.8533H239.49L239.992 17.4182L239.347 18.1242L239.346 18.124ZM236.01 25.2907L236.117 25.2556L236.189 25.3968L236.225 25.2556L236.368 25.2907L236.297 25.1848L236.44 25.1142L236.297 25.0791V24.9377L236.189 25.0436L236.261 24.6552H236.727L236.368 24.3376L236.691 23.9846L236.225 24.0552L236.081 23.5962L235.866 23.9846L235.435 23.7727L235.615 24.2317L235.184 24.4437L235.615 24.5848L235.508 25.0438L235.902 24.7613L236.081 24.9733V25.0791H235.974L236.081 25.1848L236.01 25.2907H236.01ZM231.49 25.2556L231.561 25.3612L231.382 25.5377L231.49 25.2556ZM225.929 24.1964L226.396 23.0668L227.615 23.4198L226.97 22.3608L228.01 21.69L226.79 21.478L226.898 20.2426L226.001 21.0901L225.068 20.2426L225.176 21.443L223.921 21.6194L224.925 22.3255L224.279 23.3845L225.499 23.0315L225.929 24.1966L225.929 24.1964ZM228.405 26.0322L228.943 25.5732L229.481 26.0675V25.3612L230.127 25.2907L229.552 24.8316L229.947 24.267L229.265 24.4434L229.014 23.7727L228.727 24.4434L228.045 24.1962L228.404 24.8316L227.795 25.1846L228.512 25.3259L228.404 26.032L228.405 26.0322ZM238.629 23.8788L238.844 23.7374L239.023 23.9494V23.7023H239.274L239.095 23.5259L239.274 23.3139L239.023 23.3492L238.951 23.1019L238.808 23.3139L238.593 23.208L238.664 23.455L238.449 23.5609L238.701 23.6317L238.629 23.8788H238.629Z" fill="#DAE2EA"/>
<path d="M52.8695 7.16554C60.2968 6.45925 65.7616 7.77725 67.359 11.2555C70.3919 17.8607 58.3402 29.7471 40.4394 37.8049C22.5398 45.861 5.57034 47.0379 2.53782 40.4332C1.38075 37.9137 2.42449 34.6261 5.14329 31.075C0.867791 35.7831 -0.986859 40.2255 0.515004 43.4952C3.86375 50.7885 22.5999 49.4893 42.3629 40.5922C62.1265 31.6969 75.4331 18.5724 72.0843 11.2797C70.0969 6.95266 62.6925 5.64959 52.8697 7.16554H52.8695Z" fill="#FFAB11"/>
<path d="M43.2065 42.4299C35.6144 45.8477 27.9324 48.2593 21.0999 49.4302C25.552 53.5066 31.5034 56.001 38.0446 56.001C51.8342 56.001 63.0128 44.9324 63.0128 31.2793C63.0128 31.0502 63.0021 30.8237 62.9957 30.5955C57.6088 34.9209 50.7724 39.0245 43.2067 42.4301L43.2065 42.4299Z" fill="#DAE2EA"/>
<path d="M30.8596 16.1868L22.0031 20.1897L17.9593 28.9585L14.8319 22.1755C13.7032 24.9941 13.0769 28.0633 13.0769 31.2791C13.0769 35.3593 14.0804 39.2041 15.8485 42.5959C22.6774 42.1161 31.1632 39.7629 39.5959 35.9677C49.2863 31.6056 56.6805 26.4118 61.1063 21.797C57.3493 12.8504 48.4405 6.55811 38.044 6.55811C31.9936 6.55811 26.4451 8.69053 22.1235 12.2369L30.8593 16.1868H30.8596Z" fill="#DAE2EA"/>
<path d="M17.96 8.27267L20.4658 13.7051L25.9523 16.1859L20.4658 18.666L17.96 24.0993L15.4543 18.666L9.96762 16.1859L15.4543 13.7051L17.96 8.27267Z" fill="#FFAB11"/>
<path d="M62.9278 47.5496L64.6312 51.2443L68.3629 52.9309L64.6312 54.6183L62.9278 58.313L61.2247 54.6183L57.4928 52.9309L61.2247 51.2443L62.9278 47.5496Z" fill="#DAE2EA"/>
<path d="M52.0577 1.32433C52.0577 2.05482 51.4588 2.64844 50.7201 2.64844C49.9816 2.64844 49.3825 2.05482 49.3825 1.32433C49.3825 0.592941 49.9816 0 50.7201 0C51.4588 0 52.0577 0.592941 52.0577 1.32433Z" fill="#DAE2EA"/>
<path d="M25.9409 57.0095C25.9409 58.3332 24.8574 59.406 23.5205 59.406C22.1838 59.406 21.1003 58.3332 21.1003 57.0095C21.1003 55.6852 22.1838 54.6133 23.5205 54.6133C24.8574 54.6133 25.9409 55.6852 25.9409 57.0095Z" fill="#DAE2EA"/>
<path d="M71.0383 38.7206C71.0383 39.835 70.1264 40.7388 69.0002 40.7388C67.8746 40.7388 66.9618 39.8348 66.9618 38.7206C66.9618 37.6067 67.8749 36.7027 69.0002 36.7027C70.1264 36.7027 71.0383 37.6067 71.0383 38.7206Z" fill="#DAE2EA"/>
<path d="M4.80625 22.8964C4.80625 23.5604 4.26176 24.0997 3.59092 24.0997C2.9203 24.0997 2.37558 23.5606 2.37558 22.8964C2.37558 22.2325 2.92007 21.6936 3.59092 21.6936C4.26153 21.6936 4.80625 22.2325 4.80625 22.8964Z" fill="#DAE2EA"/>
</svg>
