<svg xmlns="http://www.w3.org/2000/svg" xml:space="preserve" width="55.294" height="35.615" style="shape-rendering:geometricPrecision;text-rendering:geometricPrecision;image-rendering:optimizeQuality;fill-rule:evenodd;clip-rule:evenodd" viewBox="0 0 162.4 104.61"><path d="M52.23 0c12.26 0 22.2 9.94 22.2 22.2s-9.94 22.2-22.2 22.2-22.2-9.94-22.2-22.2S39.97 0 52.23 0m58.35 0c12.26 0 22.2 9.94 22.2 22.2s-9.94 22.2-22.2 22.2-22.2-9.94-22.2-22.2S98.32 0 110.58 0m7.73 104.61h44.09V86.64c0-5.8-3.13-10.3-6.57-12.84-7-5.18-19.37-9.94-27.79-11.74-8.38-1.8-17.09-2.31-25.57-1.59 1.36.84 2.65 1.7 3.84 2.58 7.48 5.53 11.99 14.26 11.99 23.59v17.97zM0 90.95v12.58c0 .83.25 1.08 1.08 1.08h103.86V86.64c0-5.8-3.13-10.3-6.57-12.84-7-5.18-19.37-9.94-27.79-11.74-17.65-3.78-36.77-1.9-52.14 5.29-4.02 1.88-10.32 4.87-13.15 7.69C1.17 79.14 0 82.97 0 90.95" style="fill:#29293a"/></svg>