<svg xmlns="http://www.w3.org/2000/svg" xml:space="preserve" width="49.729" height="49.651" style="shape-rendering:geometricPrecision;text-rendering:geometricPrecision;image-rendering:optimizeQuality;fill-rule:evenodd;clip-rule:evenodd" viewBox="0 0 111.25 111.08"><defs><style>.fil0{fill:#29293a}</style></defs><g id="Слой_x0020_1"><g id="_1638588017984"><path class="fil0" d="m38.44 37.32 11.31 11.44 20.86-21.34 6.4 6.22L49.78 61.5l-17.7-17.93z"/><path class="fil0" d="M11.2 0h88.85c6.16 0 11.2 5.04 11.2 11.2v66.83c0 6.16-5.04 11.2-11.2 11.2H64.26l-19.64 19.64c-3.21 3.21-8.96 2.94-11.79-.92V89.24H11.2C5.04 89.24 0 84.2 0 78.04V11.21C0 5.05 5.04.01 11.2.01zm31.89 95.91 16.93-16.93h40.03c.5 0 .95-.45.95-.95V11.2c0-.5-.45-.95-.95-.95H11.2c-.5 0-.95.45-.95.95v66.83c0 .5.45.95.95.95h31.89z"/></g></g></svg>